<svg xmlns="http://www.w3.org/2000/svg" xmlns:xlink="http://www.w3.org/1999/xlink" width="500" zoomAndPan="magnify" viewBox="0 0 375 149.999998" height="200" preserveAspectRatio="xMidYMid meet" version="1.0"><defs><g/><clipPath id="203584c2df"><path d="M 28.328125 32.601562 L 89 32.601562 L 89 106.851562 L 28.328125 106.851562 Z M 28.328125 32.601562 " clip-rule="nonzero"/></clipPath><clipPath id="b16a285c4a"><path d="M 75 51 L 92.828125 51 L 92.828125 69 L 75 69 Z M 75 51 " clip-rule="nonzero"/></clipPath></defs><rect x="-37.5" width="450" fill="#ffffff" y="-15" height="179.999997" fill-opacity="1"/><rect x="-37.5" width="450" fill="#ffffff" y="-15" height="179.999997" fill-opacity="1"/><g clip-path="url(#203584c2df)"><path fill="#000000" d="M 88.324219 60.167969 C 88.324219 57.898438 86.488281 56.058594 84.21875 56.058594 C 81.953125 56.058594 80.117188 57.898438 80.117188 60.167969 C 80.117188 61.949219 81.257812 63.464844 82.84375 64.042969 L 82.84375 87.472656 C 82.84375 96.613281 75.417969 104.0625 66.277344 104.0625 C 57.132812 104.0625 49.710938 96.628906 49.710938 87.472656 L 49.710938 78.449219 C 54.851562 77.929688 59.609375 74.578125 61.296875 71.460938 C 63.046875 68.226562 64.925781 63.003906 66.1875 57.867188 C 67.269531 53.492188 68.351562 47.332031 67.402344 42.882812 C 66.644531 39.335938 64.203125 36.902344 60.320312 35.863281 C 59.859375 35.742188 59.402344 35.640625 58.972656 35.566406 C 58.480469 33.875 56.910156 32.628906 55.042969 32.628906 C 52.777344 32.628906 50.941406 34.46875 50.941406 36.738281 C 50.941406 39.007812 52.777344 40.847656 55.042969 40.847656 C 56.75 40.847656 58.199219 39.808594 58.824219 38.339844 C 61.207031 38.816406 63.992188 40.089844 64.707031 43.476562 C 66.113281 50.109375 62.203125 64.027344 58.882812 70.171875 C 57.445312 72.828125 52.761719 75.792969 48.347656 75.792969 C 43.929688 75.792969 39.25 72.828125 37.8125 70.171875 C 34.476562 64.011719 30.566406 50.09375 31.972656 43.460938 C 32.683594 40.078125 35.484375 38.800781 37.855469 38.324219 C 38.480469 39.808594 39.929688 40.847656 41.632812 40.847656 C 43.902344 40.847656 45.738281 39.007812 45.738281 36.738281 C 45.738281 34.46875 43.917969 32.628906 41.648438 32.628906 C 39.78125 32.628906 38.210938 33.875 37.707031 35.566406 C 37.277344 35.640625 36.820312 35.742188 36.359375 35.863281 C 32.476562 36.902344 30.03125 39.335938 29.277344 42.882812 C 28.328125 47.332031 29.410156 53.492188 30.492188 57.867188 C 31.75 63.019531 33.632812 68.226562 35.382812 71.460938 C 37.070312 74.578125 41.828125 77.929688 46.96875 78.449219 L 46.96875 87.472656 C 46.96875 98.140625 55.636719 106.824219 66.289062 106.824219 C 76.945312 106.824219 85.613281 98.140625 85.613281 87.472656 L 85.613281 64.042969 C 87.183594 63.476562 88.324219 61.964844 88.324219 60.167969 Z M 88.324219 60.167969 " fill-opacity="1" fill-rule="nonzero"/></g><g clip-path="url(#b16a285c4a)"><path fill="#000000" d="M 84.21875 51.5625 C 79.476562 51.5625 75.609375 55.421875 75.609375 60.183594 C 75.609375 63.835938 77.894531 66.949219 81.09375 68.210938 L 81.09375 65.125 C 79.464844 64.085938 78.367188 62.261719 78.367188 60.183594 C 78.367188 56.949219 80.988281 54.320312 84.21875 54.320312 C 87.449219 54.320312 90.074219 56.949219 90.074219 60.183594 C 90.074219 62.261719 88.992188 64.085938 87.347656 65.125 L 87.347656 68.195312 C 90.546875 66.933594 92.828125 63.820312 92.828125 60.167969 C 92.828125 55.421875 88.960938 51.5625 84.21875 51.5625 Z M 84.21875 51.5625 " fill-opacity="1" fill-rule="nonzero"/></g><g fill="#000000" fill-opacity="1"><g transform="translate(104.13847, 79.440206)"><g><path d="M 25.359375 0 L 20.8125 0 L 20.8125 -15.28125 L 15.984375 0 L 12.515625 0 L 7.765625 -15.234375 L 7.765625 0 L 3.21875 0 L 3.21875 -28.90625 L 7.765625 -28.90625 L 14.25 -9.78125 L 20.8125 -28.90625 L 25.359375 -28.90625 Z M 25.359375 0 "/></g></g></g><g fill="#000000" fill-opacity="1"><g transform="translate(132.790331, 79.440206)"><g><path d="M 16.3125 -7.84375 L 6.03125 -7.3125 L 6.03125 -6.15625 C 6.03125 -4.75 6.660156 -3.953125 7.921875 -3.765625 C 8.117188 -3.734375 8.3125 -3.71875 8.5 -3.71875 C 9.738281 -3.71875 11.445312 -4.269531 13.625 -5.375 L 15.28125 -1.453125 C 13.238281 -0.210938 10.96875 0.4375 8.46875 0.5 C 8.351562 0.5 8.242188 0.5 8.140625 0.5 C 6.148438 0.5 4.550781 0.03125 3.34375 -0.90625 C 2.082031 -1.925781 1.453125 -3.46875 1.453125 -5.53125 L 1.453125 -14 C 1.453125 -16.226562 2.144531 -17.960938 3.53125 -19.203125 C 4.914062 -20.441406 6.75 -21.0625 9.03125 -21.0625 C 11.320312 -21.0625 13.109375 -20.445312 14.390625 -19.21875 C 15.671875 -18 16.3125 -16.300781 16.3125 -14.125 Z M 11.734375 -11.859375 L 11.734375 -14.046875 C 11.734375 -14.867188 11.46875 -15.5 10.9375 -15.9375 C 10.414062 -16.375 9.769531 -16.59375 9 -16.59375 C 7.957031 -16.59375 7.203125 -16.316406 6.734375 -15.765625 C 6.265625 -15.222656 6.03125 -14.617188 6.03125 -13.953125 L 6.03125 -11.484375 Z M 11.734375 -11.859375 "/></g></g></g><g fill="#000000" fill-opacity="1"><g transform="translate(150.708059, 79.440206)"><g><path d="M 3.21875 -6.484375 L 3.21875 -14.28125 C 3.21875 -17.175781 4.390625 -19.160156 6.734375 -20.234375 C 7.554688 -20.617188 8.476562 -20.867188 9.5 -20.984375 C 10.050781 -21.035156 10.5625 -21.0625 11.03125 -21.0625 C 11.4375 -21.0625 11.804688 -21.035156 12.140625 -20.984375 C 12.859375 -20.898438 13.460938 -20.757812 13.953125 -20.5625 L 13.953125 -28.90625 L 18.453125 -28.90625 L 18.453125 0 C 16.085938 0.332031 13.898438 0.5 11.890625 0.5 C 9.878906 0.5 8.0625 0.0820312 6.4375 -0.75 C 4.289062 -1.84375 3.21875 -3.753906 3.21875 -6.484375 Z M 13.953125 -4 L 13.953125 -15.78125 C 13.296875 -16.101562 12.609375 -16.304688 11.890625 -16.390625 C 11.671875 -16.421875 11.453125 -16.4375 11.234375 -16.4375 C 10.765625 -16.4375 10.3125 -16.378906 9.875 -16.265625 C 9.238281 -16.078125 8.71875 -15.671875 8.3125 -15.046875 C 7.914062 -14.429688 7.71875 -13.628906 7.71875 -12.640625 L 7.71875 -6.1875 C 7.71875 -5.257812 8.351562 -4.5625 9.625 -4.09375 C 10.28125 -3.84375 11.007812 -3.71875 11.8125 -3.71875 C 12.46875 -3.71875 13.179688 -3.8125 13.953125 -4 Z M 13.953125 -4 "/></g></g></g><g fill="#000000" fill-opacity="1"><g transform="translate(170.772618, 79.440206)"><g><path d="M 5.703125 -24.453125 C 5.035156 -24.453125 4.453125 -24.695312 3.953125 -25.1875 C 3.460938 -25.6875 3.21875 -26.265625 3.21875 -26.921875 C 3.21875 -27.554688 3.460938 -28.113281 3.953125 -28.59375 C 4.453125 -29.082031 5.035156 -29.328125 5.703125 -29.328125 C 6.335938 -29.328125 6.894531 -29.082031 7.375 -28.59375 C 7.851562 -28.113281 8.09375 -27.554688 8.09375 -26.921875 C 8.09375 -26.265625 7.851562 -25.6875 7.375 -25.1875 C 6.894531 -24.695312 6.335938 -24.453125 5.703125 -24.453125 Z M 7.84375 0 L 3.296875 0 L 3.296875 -20.6875 L 7.84375 -20.6875 Z M 7.84375 0 "/></g></g></g><g fill="#000000" fill-opacity="1"><g transform="translate(182.167305, 79.440206)"><g><path d="M 15.90625 -9.5 L 15.90625 -28.953125 L 20.4375 -28.953125 L 20.4375 -7.6875 C 20.4375 -6.226562 20.179688 -4.957031 19.671875 -3.875 C 19.160156 -2.800781 18.472656 -1.972656 17.609375 -1.390625 C 16.742188 -0.816406 15.828125 -0.390625 14.859375 -0.109375 C 13.898438 0.160156 12.867188 0.296875 11.765625 0.296875 C 10.671875 0.296875 9.632812 0.160156 8.65625 -0.109375 C 7.675781 -0.390625 6.75 -0.816406 5.875 -1.390625 C 5.007812 -1.972656 4.320312 -2.800781 3.8125 -3.875 C 3.3125 -4.957031 3.0625 -6.226562 3.0625 -7.6875 L 3.0625 -28.953125 L 7.59375 -28.953125 L 7.59375 -9.5 C 7.59375 -7.625 7.875 -6.265625 8.4375 -5.421875 C 9.007812 -4.585938 10.109375 -4.171875 11.734375 -4.171875 C 13.378906 -4.171875 14.484375 -4.585938 15.046875 -5.421875 C 15.617188 -6.265625 15.90625 -7.625 15.90625 -9.5 Z M 15.90625 -9.5 "/></g></g></g><g fill="#000000" fill-opacity="1"><g transform="translate(205.534674, 79.440206)"><g/></g></g><g fill="#000000" fill-opacity="1"><g transform="translate(217.01193, 79.440206)"><g><path d="M 21.34375 0 L 15.9375 0 L 14.25 -7.5625 L 7.59375 -7.5625 L 5.984375 0 L 0.875 0 L 7.640625 -28.90625 L 14.046875 -28.90625 Z M 13.171875 -12.390625 L 10.8125 -21.3125 L 8.671875 -12.390625 Z M 13.171875 -12.390625 "/></g></g></g><g fill="#000000" fill-opacity="1"><g transform="translate(238.769173, 79.440206)"><g><path d="M 1.484375 -5.25 L 6.03125 -5.703125 C 6.03125 -5.203125 6.285156 -4.734375 6.796875 -4.296875 C 7.304688 -3.859375 8.082031 -3.640625 9.125 -3.640625 C 10.03125 -3.640625 10.726562 -3.863281 11.21875 -4.3125 C 11.71875 -4.769531 11.96875 -5.300781 11.96875 -5.90625 C 11.96875 -6.707031 11.644531 -7.347656 11 -7.828125 C 10.351562 -8.304688 9.5625 -8.691406 8.625 -8.984375 C 7.695312 -9.273438 6.753906 -9.601562 5.796875 -9.96875 C 4.847656 -10.34375 4.007812 -10.957031 3.28125 -11.8125 C 2.550781 -12.664062 2.117188 -13.753906 1.984375 -15.078125 C 1.953125 -15.242188 1.9375 -15.40625 1.9375 -15.5625 C 1.9375 -16.914062 2.472656 -18.15625 3.546875 -19.28125 C 4.703125 -20.550781 6.535156 -21.1875 9.046875 -21.1875 C 9.921875 -21.1875 10.742188 -21.082031 11.515625 -20.875 C 12.285156 -20.664062 12.835938 -20.46875 13.171875 -20.28125 L 13.671875 -19.984375 L 12.34375 -15.78125 C 11.707031 -16.40625 10.609375 -16.71875 9.046875 -16.71875 C 8.273438 -16.71875 7.703125 -16.609375 7.328125 -16.390625 C 6.953125 -16.171875 6.785156 -15.929688 6.828125 -15.671875 C 6.867188 -15.410156 6.890625 -15.179688 6.890625 -14.984375 C 6.972656 -14.578125 7.378906 -14.203125 8.109375 -13.859375 C 8.835938 -13.515625 9.671875 -13.175781 10.609375 -12.84375 C 11.546875 -12.507812 12.484375 -12.09375 13.421875 -11.59375 C 14.359375 -11.101562 15.148438 -10.363281 15.796875 -9.375 C 16.441406 -8.382812 16.765625 -7.203125 16.765625 -5.828125 C 16.765625 -4.035156 16.117188 -2.507812 14.828125 -1.25 C 13.535156 0 11.632812 0.625 9.125 0.625 C 6.78125 0.625 4.929688 0.0625 3.578125 -1.0625 C 2.234375 -2.195312 1.535156 -3.59375 1.484375 -5.25 Z M 1.484375 -5.25 "/></g></g></g><g fill="#000000" fill-opacity="1"><g transform="translate(256.563053, 79.440206)"><g><path d="M 1.484375 -5.25 L 6.03125 -5.703125 C 6.03125 -5.203125 6.285156 -4.734375 6.796875 -4.296875 C 7.304688 -3.859375 8.082031 -3.640625 9.125 -3.640625 C 10.03125 -3.640625 10.726562 -3.863281 11.21875 -4.3125 C 11.71875 -4.769531 11.96875 -5.300781 11.96875 -5.90625 C 11.96875 -6.707031 11.644531 -7.347656 11 -7.828125 C 10.351562 -8.304688 9.5625 -8.691406 8.625 -8.984375 C 7.695312 -9.273438 6.753906 -9.601562 5.796875 -9.96875 C 4.847656 -10.34375 4.007812 -10.957031 3.28125 -11.8125 C 2.550781 -12.664062 2.117188 -13.753906 1.984375 -15.078125 C 1.953125 -15.242188 1.9375 -15.40625 1.9375 -15.5625 C 1.9375 -16.914062 2.472656 -18.15625 3.546875 -19.28125 C 4.703125 -20.550781 6.535156 -21.1875 9.046875 -21.1875 C 9.921875 -21.1875 10.742188 -21.082031 11.515625 -20.875 C 12.285156 -20.664062 12.835938 -20.46875 13.171875 -20.28125 L 13.671875 -19.984375 L 12.34375 -15.78125 C 11.707031 -16.40625 10.609375 -16.71875 9.046875 -16.71875 C 8.273438 -16.71875 7.703125 -16.609375 7.328125 -16.390625 C 6.953125 -16.171875 6.785156 -15.929688 6.828125 -15.671875 C 6.867188 -15.410156 6.890625 -15.179688 6.890625 -14.984375 C 6.972656 -14.578125 7.378906 -14.203125 8.109375 -13.859375 C 8.835938 -13.515625 9.671875 -13.175781 10.609375 -12.84375 C 11.546875 -12.507812 12.484375 -12.09375 13.421875 -11.59375 C 14.359375 -11.101562 15.148438 -10.363281 15.796875 -9.375 C 16.441406 -8.382812 16.765625 -7.203125 16.765625 -5.828125 C 16.765625 -4.035156 16.117188 -2.507812 14.828125 -1.25 C 13.535156 0 11.632812 0.625 9.125 0.625 C 6.78125 0.625 4.929688 0.0625 3.578125 -1.0625 C 2.234375 -2.195312 1.535156 -3.59375 1.484375 -5.25 Z M 1.484375 -5.25 "/></g></g></g><g fill="#000000" fill-opacity="1"><g transform="translate(274.356932, 79.440206)"><g><path d="M 5.703125 -24.453125 C 5.035156 -24.453125 4.453125 -24.695312 3.953125 -25.1875 C 3.460938 -25.6875 3.21875 -26.265625 3.21875 -26.921875 C 3.21875 -27.554688 3.460938 -28.113281 3.953125 -28.59375 C 4.453125 -29.082031 5.035156 -29.328125 5.703125 -29.328125 C 6.335938 -29.328125 6.894531 -29.082031 7.375 -28.59375 C 7.851562 -28.113281 8.09375 -27.554688 8.09375 -26.921875 C 8.09375 -26.265625 7.851562 -25.6875 7.375 -25.1875 C 6.894531 -24.695312 6.335938 -24.453125 5.703125 -24.453125 Z M 7.84375 0 L 3.296875 0 L 3.296875 -20.6875 L 7.84375 -20.6875 Z M 7.84375 0 "/></g></g></g><g fill="#000000" fill-opacity="1"><g transform="translate(285.751619, 79.440206)"><g><path d="M 1.484375 -5.25 L 6.03125 -5.703125 C 6.03125 -5.203125 6.285156 -4.734375 6.796875 -4.296875 C 7.304688 -3.859375 8.082031 -3.640625 9.125 -3.640625 C 10.03125 -3.640625 10.726562 -3.863281 11.21875 -4.3125 C 11.71875 -4.769531 11.96875 -5.300781 11.96875 -5.90625 C 11.96875 -6.707031 11.644531 -7.347656 11 -7.828125 C 10.351562 -8.304688 9.5625 -8.691406 8.625 -8.984375 C 7.695312 -9.273438 6.753906 -9.601562 5.796875 -9.96875 C 4.847656 -10.34375 4.007812 -10.957031 3.28125 -11.8125 C 2.550781 -12.664062 2.117188 -13.753906 1.984375 -15.078125 C 1.953125 -15.242188 1.9375 -15.40625 1.9375 -15.5625 C 1.9375 -16.914062 2.472656 -18.15625 3.546875 -19.28125 C 4.703125 -20.550781 6.535156 -21.1875 9.046875 -21.1875 C 9.921875 -21.1875 10.742188 -21.082031 11.515625 -20.875 C 12.285156 -20.664062 12.835938 -20.46875 13.171875 -20.28125 L 13.671875 -19.984375 L 12.34375 -15.78125 C 11.707031 -16.40625 10.609375 -16.71875 9.046875 -16.71875 C 8.273438 -16.71875 7.703125 -16.609375 7.328125 -16.390625 C 6.953125 -16.171875 6.785156 -15.929688 6.828125 -15.671875 C 6.867188 -15.410156 6.890625 -15.179688 6.890625 -14.984375 C 6.972656 -14.578125 7.378906 -14.203125 8.109375 -13.859375 C 8.835938 -13.515625 9.671875 -13.175781 10.609375 -12.84375 C 11.546875 -12.507812 12.484375 -12.09375 13.421875 -11.59375 C 14.359375 -11.101562 15.148438 -10.363281 15.796875 -9.375 C 16.441406 -8.382812 16.765625 -7.203125 16.765625 -5.828125 C 16.765625 -4.035156 16.117188 -2.507812 14.828125 -1.25 C 13.535156 0 11.632812 0.625 9.125 0.625 C 6.78125 0.625 4.929688 0.0625 3.578125 -1.0625 C 2.234375 -2.195312 1.535156 -3.59375 1.484375 -5.25 Z M 1.484375 -5.25 "/></g></g></g><g fill="#000000" fill-opacity="1"><g transform="translate(303.545488, 79.440206)"><g><path d="M 9.453125 -3.09375 L 8.09375 0.53125 C 3.90625 0.445312 1.8125 -1.546875 1.8125 -5.453125 L 1.8125 -28.90625 L 6.4375 -28.90625 L 6.4375 -20.6875 L 10.359375 -20.6875 L 9.375 -16.4375 L 6.4375 -16.4375 L 6.4375 -5.453125 C 6.4375 -4.515625 6.695312 -3.882812 7.21875 -3.5625 C 7.75 -3.25 8.492188 -3.09375 9.453125 -3.09375 Z M 9.453125 -3.09375 "/></g></g></g><g fill="#000000" fill-opacity="1"><g transform="translate(314.857605, 79.440206)"><g><path d="M 17.421875 -12.3125 L 17.421875 0 C 14.554688 0.269531 12.273438 0.40625 10.578125 0.40625 C 9.804688 0.40625 9.15625 0.378906 8.625 0.328125 C 4.113281 -0.160156 1.75 -2.40625 1.53125 -6.40625 C 1.53125 -6.59375 1.53125 -6.785156 1.53125 -6.984375 L 1.53125 -10.40625 C 1.53125 -13.132812 2.476562 -14.96875 4.375 -15.90625 C 5.175781 -16.34375 6.085938 -16.5625 7.109375 -16.5625 C 7.265625 -16.5625 7.414062 -16.546875 7.5625 -16.515625 C 8.769531 -16.460938 9.8125 -16.316406 10.6875 -16.078125 C 11.570312 -15.847656 12.304688 -15.566406 12.890625 -15.234375 C 12.890625 -16.992188 11.414062 -17.875 8.46875 -17.875 L 8.84375 -21.015625 C 9.882812 -21.015625 10.820312 -20.953125 11.65625 -20.828125 C 12.5 -20.710938 13.207031 -20.507812 13.78125 -20.21875 C 14.363281 -19.925781 14.875 -19.628906 15.3125 -19.328125 C 15.757812 -19.023438 16.101562 -18.625 16.34375 -18.125 C 16.59375 -17.632812 16.800781 -17.203125 16.96875 -16.828125 C 17.132812 -16.453125 17.242188 -15.945312 17.296875 -15.3125 C 17.359375 -14.6875 17.394531 -14.191406 17.40625 -13.828125 C 17.414062 -13.472656 17.421875 -12.96875 17.421875 -12.3125 Z M 12.890625 -4 L 12.890625 -10.40625 C 12.441406 -10.707031 11.867188 -10.988281 11.171875 -11.25 C 10.472656 -11.507812 9.722656 -11.710938 8.921875 -11.859375 C 8.703125 -11.878906 8.484375 -11.890625 8.265625 -11.890625 C 7.765625 -11.890625 7.320312 -11.78125 6.9375 -11.5625 C 6.382812 -11.226562 6.109375 -10.648438 6.109375 -9.828125 L 6.109375 -7.5625 C 6.109375 -5.03125 7.566406 -3.765625 10.484375 -3.765625 C 11.203125 -3.765625 12.003906 -3.84375 12.890625 -4 Z M 12.890625 -4 "/></g></g></g><g fill="#000000" fill-opacity="1"><g transform="translate(333.766174, 79.440206)"><g><path d="M 17.875 0 L 13.34375 0 L 13.34375 -13.015625 C 13.34375 -14.609375 12.75 -15.707031 11.5625 -16.3125 C 11.0625 -16.5625 10.523438 -16.6875 9.953125 -16.6875 C 9.097656 -16.6875 8.160156 -16.4375 7.140625 -15.9375 L 7.140625 0 L 2.640625 0 L 2.640625 -20.6875 L 6.65625 -20.6875 L 7.1875 -20.4375 C 8.445312 -20.851562 9.644531 -21.0625 10.78125 -21.0625 C 12.039062 -21.0625 13.238281 -20.800781 14.375 -20.28125 C 16.707031 -19.207031 17.875 -17.207031 17.875 -14.28125 Z M 17.875 0 "/></g></g></g><g fill="#000000" fill-opacity="1"><g transform="translate(354.408705, 79.440206)"><g><path d="M 9.453125 -3.09375 L 8.09375 0.53125 C 3.90625 0.445312 1.8125 -1.546875 1.8125 -5.453125 L 1.8125 -28.90625 L 6.4375 -28.90625 L 6.4375 -20.6875 L 10.359375 -20.6875 L 9.375 -16.4375 L 6.4375 -16.4375 L 6.4375 -5.453125 C 6.4375 -4.515625 6.695312 -3.882812 7.21875 -3.5625 C 7.75 -3.25 8.492188 -3.09375 9.453125 -3.09375 Z M 9.453125 -3.09375 "/></g></g></g></svg>