<svg xmlns="http://www.w3.org/2000/svg" xmlns:xlink="http://www.w3.org/1999/xlink" width="500" zoomAndPan="magnify" viewBox="0 0 375 149.999998" height="200" preserveAspectRatio="xMidYMid meet" version="1.0"><defs><g/><clipPath id="7c92d87417"><path d="M 28.328125 32.601562 L 89 32.601562 L 89 106.851562 L 28.328125 106.851562 Z M 28.328125 32.601562 " clip-rule="nonzero"/></clipPath><clipPath id="9d0e283de9"><path d="M 75 51 L 92.828125 51 L 92.828125 69 L 75 69 Z M 75 51 " clip-rule="nonzero"/></clipPath></defs><rect x="-37.5" width="450" fill="#ffffff" y="-15" height="179.999997" fill-opacity="1"/><rect x="-37.5" width="450" fill="#ffffff" y="-15" height="179.999997" fill-opacity="1"/><g clip-path="url(#7c92d87417)"><path fill="#000000" d="M 88.324219 60.167969 C 88.324219 57.898438 86.488281 56.058594 84.21875 56.058594 C 81.953125 56.058594 80.117188 57.898438 80.117188 60.167969 C 80.117188 61.949219 81.257812 63.464844 82.84375 64.042969 L 82.84375 87.472656 C 82.84375 96.613281 75.417969 104.0625 66.277344 104.0625 C 57.132812 104.0625 49.710938 96.628906 49.710938 87.472656 L 49.710938 78.449219 C 54.851562 77.929688 59.609375 74.578125 61.296875 71.460938 C 63.046875 68.226562 64.925781 63.003906 66.1875 57.867188 C 67.269531 53.492188 68.351562 47.332031 67.402344 42.882812 C 66.644531 39.335938 64.203125 36.902344 60.320312 35.863281 C 59.859375 35.742188 59.402344 35.640625 58.972656 35.566406 C 58.480469 33.875 56.910156 32.628906 55.042969 32.628906 C 52.777344 32.628906 50.941406 34.46875 50.941406 36.738281 C 50.941406 39.007812 52.777344 40.847656 55.042969 40.847656 C 56.75 40.847656 58.199219 39.808594 58.824219 38.339844 C 61.207031 38.816406 63.992188 40.089844 64.707031 43.476562 C 66.113281 50.109375 62.203125 64.027344 58.882812 70.171875 C 57.445312 72.828125 52.761719 75.792969 48.347656 75.792969 C 43.929688 75.792969 39.25 72.828125 37.8125 70.171875 C 34.476562 64.011719 30.566406 50.09375 31.972656 43.460938 C 32.683594 40.078125 35.484375 38.800781 37.855469 38.324219 C 38.480469 39.808594 39.929688 40.847656 41.632812 40.847656 C 43.902344 40.847656 45.738281 39.007812 45.738281 36.738281 C 45.738281 34.46875 43.917969 32.628906 41.648438 32.628906 C 39.78125 32.628906 38.210938 33.875 37.707031 35.566406 C 37.277344 35.640625 36.820312 35.742188 36.359375 35.863281 C 32.476562 36.902344 30.03125 39.335938 29.277344 42.882812 C 28.328125 47.332031 29.410156 53.492188 30.492188 57.867188 C 31.75 63.019531 33.632812 68.226562 35.382812 71.460938 C 37.070312 74.578125 41.828125 77.929688 46.96875 78.449219 L 46.96875 87.472656 C 46.96875 98.140625 55.636719 106.824219 66.289062 106.824219 C 76.945312 106.824219 85.613281 98.140625 85.613281 87.472656 L 85.613281 64.042969 C 87.183594 63.476562 88.324219 61.964844 88.324219 60.167969 Z M 88.324219 60.167969 " fill-opacity="1" fill-rule="nonzero"/></g><g clip-path="url(#9d0e283de9)"><path fill="#000000" d="M 84.21875 51.5625 C 79.476562 51.5625 75.609375 55.421875 75.609375 60.183594 C 75.609375 63.835938 77.894531 66.949219 81.09375 68.210938 L 81.09375 65.125 C 79.464844 64.085938 78.367188 62.261719 78.367188 60.183594 C 78.367188 56.949219 80.988281 54.320312 84.21875 54.320312 C 87.449219 54.320312 90.074219 56.949219 90.074219 60.183594 C 90.074219 62.261719 88.992188 64.085938 87.347656 65.125 L 87.347656 68.195312 C 90.546875 66.933594 92.828125 63.820312 92.828125 60.167969 C 92.828125 55.421875 88.960938 51.5625 84.21875 51.5625 Z M 84.21875 51.5625 " fill-opacity="1" fill-rule="nonzero"/></g><g fill="#000000" fill-opacity="1"><g transform="translate(110.277016, 77.626788)"><g><path d="M 25.84375 1.3125 C 25.269531 1.3125 24.796875 1.015625 24.421875 0.421875 C 24.097656 -0.078125 23.8125 -0.921875 23.5625 -2.109375 L 22.984375 -4.84375 C 22.554688 -6.539062 21.867188 -10.285156 20.921875 -16.078125 L 17.75 -6.484375 L 16.8125 -3.46875 C 16.425781 -2.269531 16.023438 -1.289062 15.609375 -0.53125 C 15.171875 0.28125 14.570312 0.6875 13.8125 0.6875 C 13.1875 0.6875 12.695312 0.347656 12.34375 -0.328125 C 12.101562 -0.773438 11.890625 -1.34375 11.703125 -2.03125 L 11.234375 -3.796875 C 10.171875 -7.535156 9.226562 -11.539062 8.40625 -15.8125 L 7.84375 -12.96875 L 5.78125 -4.578125 C 5.695312 -3.585938 5.4375 -2.128906 5 -0.203125 C 4.675781 0.617188 4.148438 1.03125 3.421875 1.03125 C 2.898438 1.03125 2.484375 0.847656 2.171875 0.484375 C 1.910156 0.160156 1.78125 -0.234375 1.78125 -0.703125 C 1.78125 -2.472656 2.144531 -4.644531 2.875 -7.21875 L 4.625 -13.625 L 5.546875 -18.640625 C 6.015625 -20.972656 6.507812 -22.503906 7.03125 -23.234375 C 7.445312 -23.847656 7.972656 -24.15625 8.609375 -24.15625 C 9.296875 -24.15625 9.804688 -23.757812 10.140625 -22.96875 C 10.554688 -22.03125 11.003906 -20.109375 11.484375 -17.203125 C 12.046875 -13.710938 12.921875 -9.941406 14.109375 -5.890625 C 15.671875 -9.960938 17.023438 -14.210938 18.171875 -18.640625 L 18.65625 -20.953125 C 18.84375 -21.890625 19.085938 -22.644531 19.390625 -23.21875 C 19.804688 -24 20.375 -24.390625 21.09375 -24.390625 C 22.007812 -24.390625 22.707031 -23.507812 23.1875 -21.75 C 23.351562 -21.144531 23.554688 -19.894531 23.796875 -18 C 24.421875 -13.207031 25.203125 -9.113281 26.140625 -5.71875 L 26.921875 -2.984375 C 27.316406 -1.523438 27.515625 -0.625 27.515625 -0.28125 C 27.515625 0.164062 27.34375 0.539062 27 0.84375 C 26.65625 1.15625 26.269531 1.3125 25.84375 1.3125 Z M 25.84375 1.3125 "/></g></g></g><g fill="#000000" fill-opacity="1"><g transform="translate(139.016699, 77.626788)"><g><path d="M 9.640625 0.734375 C 7.242188 0.734375 5.300781 0.132812 3.8125 -1.0625 C 2.195312 -2.382812 1.390625 -4.238281 1.390625 -6.625 C 1.390625 -9.382812 2.054688 -11.695312 3.390625 -13.5625 C 4.835938 -15.59375 6.773438 -16.609375 9.203125 -16.609375 C 10.960938 -16.609375 12.398438 -16.3125 13.515625 -15.71875 C 14.878906 -14.988281 15.5625 -13.867188 15.5625 -12.359375 C 15.5625 -11.296875 14.960938 -10.328125 13.765625 -9.453125 C 13.234375 -9.078125 12.109375 -8.484375 10.390625 -7.671875 L 4.328125 -4.796875 C 4.921875 -3.921875 5.660156 -3.257812 6.546875 -2.8125 C 7.429688 -2.363281 8.460938 -2.140625 9.640625 -2.140625 C 10.367188 -2.140625 11.226562 -2.28125 12.21875 -2.5625 C 13.46875 -2.90625 14.269531 -3.359375 14.625 -3.921875 C 14.988281 -4.492188 15.375 -4.78125 15.78125 -4.78125 C 16.15625 -4.78125 16.488281 -4.640625 16.78125 -4.359375 C 17.070312 -4.078125 17.21875 -3.753906 17.21875 -3.390625 C 17.21875 -2.210938 16.269531 -1.195312 14.375 -0.34375 C 12.75 0.375 11.171875 0.734375 9.640625 0.734375 Z M 9.203125 -13.75 C 7.910156 -13.75 6.832031 -13.25 5.96875 -12.25 C 5.113281 -11.25 4.472656 -9.742188 4.046875 -7.734375 L 8.9375 -10.046875 C 10.851562 -10.984375 12.21875 -11.796875 13.03125 -12.484375 C 12.125 -13.328125 10.847656 -13.75 9.203125 -13.75 Z M 9.203125 -13.75 "/></g></g></g><g fill="#000000" fill-opacity="1"><g transform="translate(156.851835, 77.626788)"><g><path d="M 16.859375 -14.046875 C 16.722656 -12.484375 16.65625 -10.921875 16.65625 -9.359375 C 16.65625 -5.835938 16.820312 -3.175781 17.15625 -1.375 C 17.175781 -1.21875 17.1875 -1.09375 17.1875 -1 C 17.1875 -0.570312 17.035156 -0.222656 16.734375 0.046875 C 16.441406 0.328125 16.097656 0.46875 15.703125 0.46875 C 15.046875 0.46875 14.566406 -0.0078125 14.265625 -0.96875 C 13.503906 -0.40625 12.710938 0.015625 11.890625 0.296875 C 11.066406 0.585938 10.207031 0.734375 9.3125 0.734375 C 7.125 0.734375 5.304688 0 3.859375 -1.46875 C 2.378906 -2.957031 1.640625 -4.875 1.640625 -7.21875 C 1.640625 -10.050781 2.390625 -12.316406 3.890625 -14.015625 C 5.390625 -15.722656 7.335938 -16.578125 9.734375 -16.578125 C 10.960938 -16.578125 11.910156 -16.390625 12.578125 -16.015625 L 14.078125 -14.90625 C 14.222656 -19.375 14.394531 -22.378906 14.59375 -23.921875 C 14.726562 -24.867188 15.210938 -25.34375 16.046875 -25.34375 C 17.003906 -25.34375 17.484375 -24.828125 17.484375 -23.796875 C 17.484375 -22.328125 17.273438 -19.078125 16.859375 -14.046875 Z M 9.796875 -13.625 C 8.015625 -13.625 6.675781 -13.097656 5.78125 -12.046875 C 4.894531 -10.992188 4.453125 -9.40625 4.453125 -7.28125 C 4.453125 -5.914062 4.9375 -4.738281 5.90625 -3.75 C 6.875 -2.769531 8.007812 -2.28125 9.3125 -2.28125 C 10.207031 -2.28125 10.960938 -2.441406 11.578125 -2.765625 C 11.929688 -2.953125 12.519531 -3.394531 13.34375 -4.09375 C 13.5 -4.226562 13.648438 -4.390625 13.796875 -4.578125 L 13.75 -7.328125 L 13.765625 -9.171875 L 13.796875 -11.046875 C 13.398438 -11.910156 12.863281 -12.554688 12.1875 -12.984375 C 11.519531 -13.410156 10.722656 -13.625 9.796875 -13.625 Z M 9.796875 -13.625 "/></g></g></g><g fill="#000000" fill-opacity="1"><g transform="translate(175.974533, 77.626788)"><g><path d="M 5.25 -20.125 C 4.738281 -20.125 4.296875 -20.300781 3.921875 -20.65625 C 3.554688 -21.019531 3.375 -21.457031 3.375 -21.96875 C 3.375 -22.476562 3.554688 -22.910156 3.921875 -23.265625 C 4.296875 -23.628906 4.738281 -23.8125 5.25 -23.8125 C 5.757812 -23.8125 6.195312 -23.628906 6.5625 -23.265625 C 6.925781 -22.910156 7.109375 -22.476562 7.109375 -21.96875 C 7.109375 -21.457031 6.925781 -21.019531 6.5625 -20.65625 C 6.195312 -20.300781 5.757812 -20.125 5.25 -20.125 Z M 5.96875 -7.21875 C 5.96875 -6.582031 5.984375 -5.628906 6.015625 -4.359375 C 6.054688 -3.097656 6.078125 -2.148438 6.078125 -1.515625 C 6.078125 -1.046875 5.929688 -0.660156 5.640625 -0.359375 C 5.359375 -0.0664062 4.984375 0.078125 4.515625 0.078125 C 4.054688 0.078125 3.679688 -0.0664062 3.390625 -0.359375 C 3.097656 -0.660156 2.953125 -1.046875 2.953125 -1.515625 C 2.953125 -2.148438 2.929688 -3.097656 2.890625 -4.359375 C 2.859375 -5.628906 2.84375 -6.582031 2.84375 -7.21875 C 2.84375 -8.21875 2.894531 -9.460938 3 -10.953125 C 3.101562 -12.441406 3.15625 -13.679688 3.15625 -14.671875 C 3.15625 -15.148438 3.300781 -15.535156 3.59375 -15.828125 C 3.882812 -16.128906 4.257812 -16.28125 4.71875 -16.28125 C 5.175781 -16.28125 5.550781 -16.128906 5.84375 -15.828125 C 6.132812 -15.535156 6.28125 -15.148438 6.28125 -14.671875 C 6.28125 -13.679688 6.226562 -12.441406 6.125 -10.953125 C 6.019531 -9.460938 5.96875 -8.21875 5.96875 -7.21875 Z M 5.96875 -7.21875 "/></g></g></g><g fill="#000000" fill-opacity="1"><g transform="translate(185.098747, 77.626788)"><g><path d="M 12.5625 0.640625 C 9.257812 0.640625 6.800781 -0.304688 5.1875 -2.203125 C 3.875 -3.734375 3.046875 -5.992188 2.703125 -8.984375 C 2.546875 -10.328125 2.46875 -13.015625 2.46875 -17.046875 C 2.46875 -18.523438 2.5 -19.722656 2.5625 -20.640625 C 2.625 -21.597656 2.71875 -22.269531 2.84375 -22.65625 C 3.113281 -23.425781 3.59375 -23.8125 4.28125 -23.8125 C 5.25 -23.8125 5.734375 -22.914062 5.734375 -21.125 L 5.734375 -11.796875 C 5.734375 -5.367188 7.984375 -2.15625 12.484375 -2.15625 C 16.710938 -2.15625 18.828125 -7.5625 18.828125 -18.375 C 18.828125 -18.78125 18.828125 -19.300781 18.828125 -19.9375 C 18.816406 -20.570312 18.8125 -20.992188 18.8125 -21.203125 C 18.8125 -21.867188 18.925781 -22.445312 19.15625 -22.9375 C 19.457031 -23.570312 19.898438 -23.890625 20.484375 -23.890625 C 21.535156 -23.890625 22.0625 -23.164062 22.0625 -21.71875 C 22.0625 -21.28125 22.066406 -20.625 22.078125 -19.75 C 22.078125 -18.863281 22.078125 -18.207031 22.078125 -17.78125 C 22.078125 -5.5 18.90625 0.640625 12.5625 0.640625 Z M 12.5625 0.640625 "/></g></g></g><g fill="#000000" fill-opacity="1"><g transform="translate(209.085573, 77.626788)"><g/></g></g><g fill="#000000" fill-opacity="1"><g transform="translate(218.813829, 77.626788)"><g><path d="M 19.875 0.484375 C 18.894531 0.484375 18.046875 -0.769531 17.328125 -3.28125 C 17.054688 -4.226562 16.710938 -5.894531 16.296875 -8.28125 C 15.210938 -8.132812 13.796875 -7.867188 12.046875 -7.484375 L 7.828125 -6.609375 C 7.296875 -5.222656 6.390625 -3.195312 5.109375 -0.53125 C 4.765625 0.0625 4.300781 0.359375 3.71875 0.359375 C 3.289062 0.359375 2.910156 0.207031 2.578125 -0.09375 C 2.242188 -0.40625 2.078125 -0.785156 2.078125 -1.234375 C 2.078125 -1.742188 2.878906 -3.679688 4.484375 -7.046875 C 4.304688 -7.316406 4.21875 -7.632812 4.21875 -8 C 4.21875 -8.851562 4.734375 -9.40625 5.765625 -9.65625 C 6.972656 -11.914062 8.5 -14.519531 10.34375 -17.46875 C 12.863281 -21.488281 14.429688 -23.5 15.046875 -23.5 C 15.878906 -23.5 16.453125 -22.914062 16.765625 -21.75 L 17.765625 -16.40625 L 20.125 -5.359375 L 21.03125 -2.84375 C 21.34375 -1.988281 21.5 -1.414062 21.5 -1.125 C 21.5 -0.664062 21.332031 -0.285156 21 0.015625 C 20.675781 0.328125 20.300781 0.484375 19.875 0.484375 Z M 14.265625 -17.703125 L 9.71875 -10.359375 C 11 -10.691406 12.941406 -11.09375 15.546875 -11.5625 Z M 14.265625 -17.703125 "/></g></g></g><g fill="#000000" fill-opacity="1"><g transform="translate(242.625801, 77.626788)"><g><path d="M 12.9375 -12.25 C 12.351562 -12.25 11.945312 -12.441406 11.71875 -12.828125 C 11.5625 -13.109375 11.421875 -13.679688 11.296875 -14.546875 C 10.503906 -14.347656 9.28125 -13.976562 7.625 -13.4375 C 5.925781 -12.757812 5.070312 -11.921875 5.0625 -10.921875 C 5.375 -10.804688 5.6875 -10.722656 6 -10.671875 C 8.4375 -10.234375 10.25 -9.632812 11.4375 -8.875 C 13.164062 -7.757812 14.03125 -6.144531 14.03125 -4.03125 C 14.03125 -2.3125 13.28125 -1.007812 11.78125 -0.125 C 10.539062 0.59375 8.972656 0.953125 7.078125 0.953125 C 5.691406 0.953125 4.363281 0.71875 3.09375 0.25 C 1.46875 -0.34375 0.65625 -1.164062 0.65625 -2.21875 C 0.65625 -2.644531 0.820312 -3.015625 1.15625 -3.328125 C 1.488281 -3.648438 1.867188 -3.8125 2.296875 -3.8125 C 2.617188 -3.8125 3.039062 -3.554688 3.5625 -3.046875 C 3.8125 -2.804688 4.382812 -2.609375 5.28125 -2.453125 C 5.988281 -2.316406 6.585938 -2.25 7.078125 -2.25 C 7.960938 -2.25 8.742188 -2.359375 9.421875 -2.578125 C 10.410156 -2.878906 10.90625 -3.363281 10.90625 -4.03125 C 10.90625 -5.476562 9.898438 -6.457031 7.890625 -6.96875 L 6.234375 -7.328125 C 4.828125 -7.640625 3.828125 -8 3.234375 -8.40625 C 2.367188 -9 1.9375 -9.894531 1.9375 -11.09375 C 1.9375 -13.3125 2.984375 -14.894531 5.078125 -15.84375 C 5.710938 -16.125 6.726562 -16.460938 8.125 -16.859375 C 9.519531 -17.253906 10.519531 -17.59375 11.125 -17.875 C 11.5625 -18.0625 12.035156 -18.15625 12.546875 -18.15625 C 13.003906 -18.15625 13.378906 -18.003906 13.671875 -17.703125 C 13.960938 -17.410156 14.109375 -17.023438 14.109375 -16.546875 C 14.109375 -16.242188 14.171875 -15.796875 14.296875 -15.203125 C 14.429688 -14.609375 14.5 -14.15625 14.5 -13.84375 C 14.5 -13.375 14.351562 -12.988281 14.0625 -12.6875 C 13.769531 -12.394531 13.394531 -12.25 12.9375 -12.25 Z M 12.9375 -12.25 "/></g></g></g><g fill="#000000" fill-opacity="1"><g transform="translate(258.473956, 77.626788)"><g><path d="M 12.9375 -12.25 C 12.351562 -12.25 11.945312 -12.441406 11.71875 -12.828125 C 11.5625 -13.109375 11.421875 -13.679688 11.296875 -14.546875 C 10.503906 -14.347656 9.28125 -13.976562 7.625 -13.4375 C 5.925781 -12.757812 5.070312 -11.921875 5.0625 -10.921875 C 5.375 -10.804688 5.6875 -10.722656 6 -10.671875 C 8.4375 -10.234375 10.25 -9.632812 11.4375 -8.875 C 13.164062 -7.757812 14.03125 -6.144531 14.03125 -4.03125 C 14.03125 -2.3125 13.28125 -1.007812 11.78125 -0.125 C 10.539062 0.59375 8.972656 0.953125 7.078125 0.953125 C 5.691406 0.953125 4.363281 0.71875 3.09375 0.25 C 1.46875 -0.34375 0.65625 -1.164062 0.65625 -2.21875 C 0.65625 -2.644531 0.820312 -3.015625 1.15625 -3.328125 C 1.488281 -3.648438 1.867188 -3.8125 2.296875 -3.8125 C 2.617188 -3.8125 3.039062 -3.554688 3.5625 -3.046875 C 3.8125 -2.804688 4.382812 -2.609375 5.28125 -2.453125 C 5.988281 -2.316406 6.585938 -2.25 7.078125 -2.25 C 7.960938 -2.25 8.742188 -2.359375 9.421875 -2.578125 C 10.410156 -2.878906 10.90625 -3.363281 10.90625 -4.03125 C 10.90625 -5.476562 9.898438 -6.457031 7.890625 -6.96875 L 6.234375 -7.328125 C 4.828125 -7.640625 3.828125 -8 3.234375 -8.40625 C 2.367188 -9 1.9375 -9.894531 1.9375 -11.09375 C 1.9375 -13.3125 2.984375 -14.894531 5.078125 -15.84375 C 5.710938 -16.125 6.726562 -16.460938 8.125 -16.859375 C 9.519531 -17.253906 10.519531 -17.59375 11.125 -17.875 C 11.5625 -18.0625 12.035156 -18.15625 12.546875 -18.15625 C 13.003906 -18.15625 13.378906 -18.003906 13.671875 -17.703125 C 13.960938 -17.410156 14.109375 -17.023438 14.109375 -16.546875 C 14.109375 -16.242188 14.171875 -15.796875 14.296875 -15.203125 C 14.429688 -14.609375 14.5 -14.15625 14.5 -13.84375 C 14.5 -13.375 14.351562 -12.988281 14.0625 -12.6875 C 13.769531 -12.394531 13.394531 -12.25 12.9375 -12.25 Z M 12.9375 -12.25 "/></g></g></g><g fill="#000000" fill-opacity="1"><g transform="translate(274.322112, 77.626788)"><g><path d="M 5.25 -20.125 C 4.738281 -20.125 4.296875 -20.300781 3.921875 -20.65625 C 3.554688 -21.019531 3.375 -21.457031 3.375 -21.96875 C 3.375 -22.476562 3.554688 -22.910156 3.921875 -23.265625 C 4.296875 -23.628906 4.738281 -23.8125 5.25 -23.8125 C 5.757812 -23.8125 6.195312 -23.628906 6.5625 -23.265625 C 6.925781 -22.910156 7.109375 -22.476562 7.109375 -21.96875 C 7.109375 -21.457031 6.925781 -21.019531 6.5625 -20.65625 C 6.195312 -20.300781 5.757812 -20.125 5.25 -20.125 Z M 5.96875 -7.21875 C 5.96875 -6.582031 5.984375 -5.628906 6.015625 -4.359375 C 6.054688 -3.097656 6.078125 -2.148438 6.078125 -1.515625 C 6.078125 -1.046875 5.929688 -0.660156 5.640625 -0.359375 C 5.359375 -0.0664062 4.984375 0.078125 4.515625 0.078125 C 4.054688 0.078125 3.679688 -0.0664062 3.390625 -0.359375 C 3.097656 -0.660156 2.953125 -1.046875 2.953125 -1.515625 C 2.953125 -2.148438 2.929688 -3.097656 2.890625 -4.359375 C 2.859375 -5.628906 2.84375 -6.582031 2.84375 -7.21875 C 2.84375 -8.21875 2.894531 -9.460938 3 -10.953125 C 3.101562 -12.441406 3.15625 -13.679688 3.15625 -14.671875 C 3.15625 -15.148438 3.300781 -15.535156 3.59375 -15.828125 C 3.882812 -16.128906 4.257812 -16.28125 4.71875 -16.28125 C 5.175781 -16.28125 5.550781 -16.128906 5.84375 -15.828125 C 6.132812 -15.535156 6.28125 -15.148438 6.28125 -14.671875 C 6.28125 -13.679688 6.226562 -12.441406 6.125 -10.953125 C 6.019531 -9.460938 5.96875 -8.21875 5.96875 -7.21875 Z M 5.96875 -7.21875 "/></g></g></g><g fill="#000000" fill-opacity="1"><g transform="translate(283.446325, 77.626788)"><g><path d="M 12.9375 -12.25 C 12.351562 -12.25 11.945312 -12.441406 11.71875 -12.828125 C 11.5625 -13.109375 11.421875 -13.679688 11.296875 -14.546875 C 10.503906 -14.347656 9.28125 -13.976562 7.625 -13.4375 C 5.925781 -12.757812 5.070312 -11.921875 5.0625 -10.921875 C 5.375 -10.804688 5.6875 -10.722656 6 -10.671875 C 8.4375 -10.234375 10.25 -9.632812 11.4375 -8.875 C 13.164062 -7.757812 14.03125 -6.144531 14.03125 -4.03125 C 14.03125 -2.3125 13.28125 -1.007812 11.78125 -0.125 C 10.539062 0.59375 8.972656 0.953125 7.078125 0.953125 C 5.691406 0.953125 4.363281 0.71875 3.09375 0.25 C 1.46875 -0.34375 0.65625 -1.164062 0.65625 -2.21875 C 0.65625 -2.644531 0.820312 -3.015625 1.15625 -3.328125 C 1.488281 -3.648438 1.867188 -3.8125 2.296875 -3.8125 C 2.617188 -3.8125 3.039062 -3.554688 3.5625 -3.046875 C 3.8125 -2.804688 4.382812 -2.609375 5.28125 -2.453125 C 5.988281 -2.316406 6.585938 -2.25 7.078125 -2.25 C 7.960938 -2.25 8.742188 -2.359375 9.421875 -2.578125 C 10.410156 -2.878906 10.90625 -3.363281 10.90625 -4.03125 C 10.90625 -5.476562 9.898438 -6.457031 7.890625 -6.96875 L 6.234375 -7.328125 C 4.828125 -7.640625 3.828125 -8 3.234375 -8.40625 C 2.367188 -9 1.9375 -9.894531 1.9375 -11.09375 C 1.9375 -13.3125 2.984375 -14.894531 5.078125 -15.84375 C 5.710938 -16.125 6.726562 -16.460938 8.125 -16.859375 C 9.519531 -17.253906 10.519531 -17.59375 11.125 -17.875 C 11.5625 -18.0625 12.035156 -18.15625 12.546875 -18.15625 C 13.003906 -18.15625 13.378906 -18.003906 13.671875 -17.703125 C 13.960938 -17.410156 14.109375 -17.023438 14.109375 -16.546875 C 14.109375 -16.242188 14.171875 -15.796875 14.296875 -15.203125 C 14.429688 -14.609375 14.5 -14.15625 14.5 -13.84375 C 14.5 -13.375 14.351562 -12.988281 14.0625 -12.6875 C 13.769531 -12.394531 13.394531 -12.25 12.9375 -12.25 Z M 12.9375 -12.25 "/></g></g></g><g fill="#000000" fill-opacity="1"><g transform="translate(299.294481, 77.626788)"><g><path d="M 12.84375 -13.546875 C 12.625 -13.546875 12.363281 -13.554688 12.0625 -13.578125 C 11.757812 -13.597656 11.492188 -13.609375 11.265625 -13.609375 C 11.023438 -13.609375 10.304688 -13.53125 9.109375 -13.375 L 9.40625 -3.96875 L 9.421875 -3.28125 L 9.4375 -2.46875 C 9.488281 -0.144531 8.9375 1.015625 7.78125 1.015625 C 7.351562 1.015625 6.984375 0.875 6.671875 0.59375 C 6.359375 0.320312 6.203125 -0.015625 6.203125 -0.421875 C 6.203125 -0.828125 6.21875 -1.429688 6.25 -2.234375 C 6.28125 -3.046875 6.296875 -3.648438 6.296875 -4.046875 L 5.984375 -13.34375 C 5.203125 -13.375 4.023438 -13.460938 2.453125 -13.609375 C 1.503906 -13.734375 1.03125 -14.257812 1.03125 -15.1875 C 1.03125 -15.65625 1.171875 -16.039062 1.453125 -16.34375 C 1.742188 -16.65625 2.113281 -16.8125 2.5625 -16.8125 L 5.90625 -16.53125 C 5.90625 -17.070312 5.878906 -17.796875 5.828125 -18.703125 C 5.773438 -19.609375 5.75 -20.265625 5.75 -20.671875 C 5.75 -21.117188 5.898438 -21.488281 6.203125 -21.78125 C 6.515625 -22.070312 6.894531 -22.21875 7.34375 -22.21875 C 8.300781 -22.21875 8.859375 -21.4375 9.015625 -19.875 C 9.046875 -19.476562 9.0625 -19.003906 9.0625 -18.453125 L 9.03125 -17.53125 L 9.015625 -16.546875 C 10.328125 -16.722656 11.078125 -16.8125 11.265625 -16.8125 C 12.367188 -16.8125 13.09375 -16.753906 13.4375 -16.640625 C 14.082031 -16.429688 14.40625 -15.9375 14.40625 -15.15625 C 14.40625 -14.6875 14.257812 -14.300781 13.96875 -14 C 13.675781 -13.695312 13.300781 -13.546875 12.84375 -13.546875 Z M 12.84375 -13.546875 "/></g></g></g><g fill="#000000" fill-opacity="1"><g transform="translate(314.633969, 77.626788)"><g><path d="M 14.625 1.046875 C 14.425781 1.046875 14.0625 0.8125 13.53125 0.34375 C 13.050781 -0.0820312 12.695312 -0.46875 12.46875 -0.8125 C 11.445312 -0.257812 10.550781 0.15625 9.78125 0.4375 C 9.007812 0.71875 8.363281 0.859375 7.84375 0.859375 C 5.363281 0.859375 3.554688 0.160156 2.421875 -1.234375 C 1.347656 -2.554688 0.8125 -4.570312 0.8125 -7.28125 C 0.8125 -9.84375 1.691406 -12.035156 3.453125 -13.859375 C 5.222656 -15.679688 7.332031 -16.59375 9.78125 -16.59375 C 10.695312 -16.59375 11.726562 -16.359375 12.875 -15.890625 C 14.320312 -15.296875 15.046875 -14.578125 15.046875 -13.734375 C 15.046875 -13.453125 14.9375 -13.195312 14.71875 -12.96875 C 14.613281 -12.570312 14.53125 -11.910156 14.46875 -10.984375 C 14.414062 -10.066406 14.382812 -8.882812 14.375 -7.4375 C 14.363281 -6.125 14.453125 -5.085938 14.640625 -4.328125 C 14.742188 -3.859375 15.078125 -2.925781 15.640625 -1.53125 C 15.710938 -1.332031 15.835938 -1.050781 16.015625 -0.6875 L 16.109375 -0.40625 C 16.109375 0.0078125 15.957031 0.351562 15.65625 0.625 C 15.363281 0.90625 15.019531 1.046875 14.625 1.046875 Z M 11.328125 -10 C 11.328125 -10.457031 11.351562 -10.953125 11.40625 -11.484375 C 11.46875 -12.023438 11.554688 -12.597656 11.671875 -13.203125 C 11.273438 -13.398438 10.9375 -13.546875 10.65625 -13.640625 C 10.375 -13.734375 10.148438 -13.78125 9.984375 -13.78125 C 8.335938 -13.78125 6.914062 -13.109375 5.71875 -11.765625 C 4.53125 -10.429688 3.9375 -8.890625 3.9375 -7.140625 C 3.9375 -5.398438 4.242188 -4.09375 4.859375 -3.21875 C 5.472656 -2.351562 6.394531 -1.921875 7.625 -1.921875 C 8.644531 -1.921875 9.507812 -2.109375 10.21875 -2.484375 C 10.601562 -2.679688 11.140625 -3.082031 11.828125 -3.6875 C 11.492188 -6.5 11.328125 -8.601562 11.328125 -10 Z M 11.328125 -10 "/></g></g></g><g fill="#000000" fill-opacity="1"><g transform="translate(331.292812, 77.626788)"><g><path d="M 14.40625 1.125 C 13.488281 1.125 12.972656 0.628906 12.859375 -0.359375 L 12.421875 -3.84375 C 12.265625 -5.082031 12.1875 -6.242188 12.1875 -7.328125 C 12.1875 -7.628906 12.207031 -8.132812 12.25 -8.84375 C 12.289062 -9.550781 12.3125 -10.050781 12.3125 -10.34375 C 12.3125 -12.632812 11.882812 -13.78125 11.03125 -13.78125 C 9.84375 -13.78125 8.707031 -13.078125 7.625 -11.671875 C 6.65625 -10.390625 5.894531 -8.769531 5.34375 -6.8125 C 5.320312 -6.394531 5.273438 -5.875 5.203125 -5.25 C 5.140625 -4.71875 5.109375 -4.203125 5.109375 -3.703125 C 5.109375 -3.390625 5.140625 -2.910156 5.203125 -2.265625 C 5.265625 -1.628906 5.296875 -1.15625 5.296875 -0.84375 C 5.296875 -0.363281 5.148438 0.0195312 4.859375 0.3125 C 4.566406 0.613281 4.191406 0.765625 3.734375 0.765625 C 3.265625 0.765625 2.882812 0.613281 2.59375 0.3125 C 2.3125 0.0195312 2.171875 -0.363281 2.171875 -0.84375 C 2.171875 -1.15625 2.132812 -1.628906 2.0625 -2.265625 C 2 -2.910156 1.96875 -3.390625 1.96875 -3.703125 C 1.96875 -4.796875 2.046875 -6.304688 2.203125 -8.234375 C 2.359375 -10.171875 2.4375 -11.6875 2.4375 -12.78125 C 2.4375 -13.125 2.414062 -13.628906 2.375 -14.296875 C 2.34375 -14.960938 2.328125 -15.460938 2.328125 -15.796875 C 2.328125 -16.253906 2.476562 -16.628906 2.78125 -16.921875 C 3.082031 -17.210938 3.453125 -17.359375 3.890625 -17.359375 C 4.867188 -17.359375 5.40625 -16.671875 5.5 -15.296875 L 5.546875 -13.4375 C 7.328125 -15.8125 9.15625 -17 11.03125 -17 C 12.726562 -17 13.910156 -16.25 14.578125 -14.75 C 15.035156 -13.757812 15.285156 -12.285156 15.328125 -10.328125 L 15.328125 -8.734375 L 15.3125 -7.25 C 15.3125 -6.375 15.425781 -5.238281 15.65625 -3.84375 C 15.882812 -2.445312 16 -1.3125 16 -0.4375 C 16 0.0195312 15.847656 0.394531 15.546875 0.6875 C 15.242188 0.976562 14.863281 1.125 14.40625 1.125 Z M 14.40625 1.125 "/></g></g></g><g fill="#000000" fill-opacity="1"><g transform="translate(348.333155, 77.626788)"><g><path d="M 12.84375 -13.546875 C 12.625 -13.546875 12.363281 -13.554688 12.0625 -13.578125 C 11.757812 -13.597656 11.492188 -13.609375 11.265625 -13.609375 C 11.023438 -13.609375 10.304688 -13.53125 9.109375 -13.375 L 9.40625 -3.96875 L 9.421875 -3.28125 L 9.4375 -2.46875 C 9.488281 -0.144531 8.9375 1.015625 7.78125 1.015625 C 7.351562 1.015625 6.984375 0.875 6.671875 0.59375 C 6.359375 0.320312 6.203125 -0.015625 6.203125 -0.421875 C 6.203125 -0.828125 6.21875 -1.429688 6.25 -2.234375 C 6.28125 -3.046875 6.296875 -3.648438 6.296875 -4.046875 L 5.984375 -13.34375 C 5.203125 -13.375 4.023438 -13.460938 2.453125 -13.609375 C 1.503906 -13.734375 1.03125 -14.257812 1.03125 -15.1875 C 1.03125 -15.65625 1.171875 -16.039062 1.453125 -16.34375 C 1.742188 -16.65625 2.113281 -16.8125 2.5625 -16.8125 L 5.90625 -16.53125 C 5.90625 -17.070312 5.878906 -17.796875 5.828125 -18.703125 C 5.773438 -19.609375 5.75 -20.265625 5.75 -20.671875 C 5.75 -21.117188 5.898438 -21.488281 6.203125 -21.78125 C 6.515625 -22.070312 6.894531 -22.21875 7.34375 -22.21875 C 8.300781 -22.21875 8.859375 -21.4375 9.015625 -19.875 C 9.046875 -19.476562 9.0625 -19.003906 9.0625 -18.453125 L 9.03125 -17.53125 L 9.015625 -16.546875 C 10.328125 -16.722656 11.078125 -16.8125 11.265625 -16.8125 C 12.367188 -16.8125 13.09375 -16.753906 13.4375 -16.640625 C 14.082031 -16.429688 14.40625 -15.9375 14.40625 -15.15625 C 14.40625 -14.6875 14.257812 -14.300781 13.96875 -14 C 13.675781 -13.695312 13.300781 -13.546875 12.84375 -13.546875 Z M 12.84375 -13.546875 "/></g></g></g></svg>